<svg xmlns="http://www.w3.org/2000/svg" xmlns:xlink="http://www.w3.org/1999/xlink" width="500" zoomAndPan="magnify" viewBox="0 0 375 374.999991" height="500" preserveAspectRatio="xMidYMid meet" version="1.0"><defs><g/><clipPath id="c0eb953138"><path d="M 187.5 0 C 83.945312 0 0 83.945312 0 187.5 C 0 291.054688 83.945312 375 187.5 375 C 291.054688 375 375 291.054688 375 187.5 C 375 83.945312 291.054688 0 187.5 0 Z M 187.5 0 " clip-rule="nonzero"/></clipPath><clipPath id="34c3d8fe15"><path d="M 0 0 L 375 0 L 375 375 L 0 375 Z M 0 0 " clip-rule="nonzero"/></clipPath><clipPath id="f168366794"><path d="M 187.5 0 C 83.945312 0 0 83.945312 0 187.5 C 0 291.054688 83.945312 375 187.5 375 C 291.054688 375 375 291.054688 375 187.5 C 375 83.945312 291.054688 0 187.5 0 Z M 187.5 0 " clip-rule="nonzero"/></clipPath><clipPath id="f16c503bc8"><rect x="0" width="375" y="0" height="375"/></clipPath><clipPath id="0164eac890"><rect x="0" width="114" y="0" height="239"/></clipPath><clipPath id="012e0d6e87"><path d="M 177.21875 133.207031 L 291.21875 133.207031 L 291.21875 176.484375 L 177.21875 176.484375 Z M 177.21875 133.207031 " clip-rule="nonzero"/></clipPath><clipPath id="defd1a6b73"><path d="M 0.21875 0.207031 L 114.21875 0.207031 L 114.21875 43.484375 L 0.21875 43.484375 Z M 0.21875 0.207031 " clip-rule="nonzero"/></clipPath><clipPath id="b41c14750a"><rect x="0" width="115" y="0" height="44"/></clipPath><clipPath id="2eed293515"><rect x="0" width="135" y="0" height="239"/></clipPath><clipPath id="2612452b72"><path d="M 219 86 L 333 86 L 333 279 L 219 279 Z M 219 86 " clip-rule="nonzero"/></clipPath><clipPath id="ab71c2a176"><path d="M 332.300781 101.132812 L 253.585938 278.855469 L 219.742188 263.863281 L 298.457031 86.144531 Z M 332.300781 101.132812 " clip-rule="nonzero"/></clipPath><clipPath id="8d2c061ec1"><path d="M 0.601562 0 L 113.398438 0 L 113.398438 192.878906 L 0.601562 192.878906 Z M 0.601562 0 " clip-rule="nonzero"/></clipPath><clipPath id="d98c2d60f7"><path d="M 113.300781 15.132812 L 34.585938 192.855469 L 0.742188 177.863281 L 79.457031 0.144531 Z M 113.300781 15.132812 " clip-rule="nonzero"/></clipPath><clipPath id="340b2cb58c"><rect x="0" width="114" y="0" height="193"/></clipPath></defs><g clip-path="url(#c0eb953138)"><g transform="matrix(1, 0, 0, 1, 0, 0)"><g clip-path="url(#f16c503bc8)"><g clip-path="url(#34c3d8fe15)"><g clip-path="url(#f168366794)"><rect x="-82.5" width="540" fill="#000000" height="539.999987" y="-82.499998" fill-opacity="1"/></g></g></g></g></g><g transform="matrix(1, 0, 0, 1, 179, 68)"><g clip-path="url(#0164eac890)"><g fill="#ffffff" fill-opacity="1"><g transform="translate(0.412063, 188.399955)"><g><path d="M 100.234375 -59.28125 L 42.84375 -59.28125 L 42.84375 0 L 12.953125 0 L 12.953125 -145.078125 L 107.40625 -145.078125 L 107.40625 -120.859375 L 42.84375 -120.859375 L 42.84375 -83.40625 L 100.234375 -83.40625 Z M 100.234375 -59.28125 "/></g></g></g></g></g><g clip-path="url(#012e0d6e87)"><g transform="matrix(1, 0, 0, 1, 177, 133)"><g clip-path="url(#b41c14750a)"><g clip-path="url(#defd1a6b73)"><path fill="#000000" d="M 0.21875 0.207031 L 114.15625 0.207031 L 114.15625 43.484375 L 0.21875 43.484375 Z M 0.21875 0.207031 " fill-opacity="1" fill-rule="nonzero"/></g></g></g></g><g transform="matrix(1, 0, 0, 1, 82, 68)"><g clip-path="url(#2eed293515)"><g fill="#ffffff" fill-opacity="1"><g transform="translate(0.619713, 188.399955)"><g><path d="M 66.5625 -35.96875 L 99.4375 -145.078125 L 132.71875 -145.078125 L 82.203125 0 L 51.015625 0 L 0.703125 -145.078125 L 33.875 -145.078125 Z M 66.5625 -35.96875 "/></g></g></g></g></g><g clip-path="url(#2612452b72)"><g clip-path="url(#ab71c2a176)"><g transform="matrix(1, 0, 0, 1, 219, 86)"><g clip-path="url(#340b2cb58c)"><g clip-path="url(#8d2c061ec1)"><g clip-path="url(#d98c2d60f7)"><path fill="#000000" d="M 113.300781 15.132812 L 34.601562 192.820312 L 0.757812 177.832031 L 79.457031 0.144531 Z M 113.300781 15.132812 " fill-opacity="1" fill-rule="nonzero"/></g></g></g></g></g></g></svg>